<svg xmlns="http://www.w3.org/2000/svg" width="231.118" height="138.932" viewBox="0 0 231.118 138.932"><g transform="translate(-180.343 -285.257)"><path d="M0,138.932V0H231.118V138.932Zm.651-.652H230.468V.651H.651Zm58.6-16.7c-4.682-3.759-4.966-9.9-2.209-14.379a12.1,12.1,0,0,1,5.1-4.53c1.957-.889,4.273-.784,6.284-.679A11.423,11.423,0,0,0,72,101.861c1.929-.7,2.25-4.946,2.819-6.739.9-2.832,2.079-6.774,2.768-9.675-8.629,2.334-21.666,4.913-27.38,7.446-.232.1-.453.207-.659.309a17.977,17.977,0,0,0-3.125,1.907c-.8.571-2.138.376-3.459.134-6.6-.837-9.567-.478-15.643.055a.339.339,0,0,1-.268-.122,3.856,3.856,0,0,1,1.154-.406c4.808-1.112,9.738-2.21,14.423-3.147,12.089-2.414,23.045-4.584,34.829-8.223a5.937,5.937,0,0,1,3.178-.95c-.582,1.26-1.92,7.973-2.28,9.655-.583,2.727-1.829,5.7-2.665,8.46a58.694,58.694,0,0,1-3.026,8.069c-.714,1.558-2.773,4.343-4.9,4.735-2.2.718-3.872-1.147-2.824-2.463a2.724,2.724,0,0,1,3.979-.33c1.2-1.2,2.412-2.534,2.272-4.271a2.59,2.59,0,0,0-2.108-2.478,8.933,8.933,0,0,0-3.835-.14c-5.9,1.092-8.528,6.762-6.938,12.358,2.521,7.51,15.121,6.393,20.067,1.812,5.7-5.875,9-15.61,10.637-23.17.788-3.647,2.149-10.489,1.839-13.95-.536-.254-2.994-1.231-1.651-1.749,1.058-.407,2.8-.242,4.419-.727a24.275,24.275,0,0,0,4.079-1.777c1.53-.794,2.214-.561.622,1.917a10,10,0,0,0-1.518,2.922c1.512,6.1,2.179,8.287,4.831,17.056.011.035.015.024.031-.021.311-.828,4.023-11.229,4.541-12.521a72.373,72.373,0,0,0,2.438-7.078,1.767,1.767,0,0,0-.164-1.574A15.748,15.748,0,0,1,106.2,74.7c3.976-.88,7.046-1.054,10.9-2.262,9.839-2.791,13.957-5.247,36.173-10.264,1.973-.273,1.945.144.988.433-6.451,1.962-8.231,3.047-12.312,5.739-1.106.729-1.04,1.248-2.287,1.054a16.367,16.367,0,0,0-7.968.565,126.99,126.99,0,0,0-14.008,4.819,11.568,11.568,0,0,0-1.328.7c-.745.453-1.837,1-1.895,1.861-.151,2.246-.132,4.018-.139,5.793-.083,10.023.049,19.854.1,32.269,0,.891-.108,1.1.686.792,10.327-3.949,10.883-4.177,19.111-7.473,2.588-1.29,3.068-2.828,4.012-4.169.281-.4.7-.276,1.135-.176a35.2,35.2,0,0,0,6.388,1.15,27.856,27.856,0,0,0,5.527-.353c3.974-.53,7.689-1.06,11.227,2.389,1.512,1.475,1.489,3.243,1.165,5.032a7.319,7.319,0,0,1-3.559,4.782,12.527,12.527,0,0,1-6.748,1.315c-2.537-.232-4.872-.722-5.648-3.127a2.271,2.271,0,0,1,1.195-2.654c2.11-1.12,5.059.573,3.449,2.665-.352.455-.939.652-.8.7a8.12,8.12,0,0,0,2.708.6c3.388.015,5.755-.887,6.994-4.021.938-2.373-.138-4.586-3.213-5.7-8.926-3.226-35.6,7.715-43.555,12-5.8,2.7-8.771,2.354-12.06-.319-.031-.5.043-1.138.012-1.639.459-.944,1.286-.974,1.995-.275,2.649,2.615,6.185,2.21,6.178-1.414l-.056-29.5c.066-1.726-.386-.775-.547-.384-3.3,7.981-4.33,14.3-8.33,20.641-.092.147-.181.146-.243.017-1.914-4.04-5.5-18.181-6.968-20.2-.465-.639-.647.935-.785,1.264-.668,3.1-1.217,5.948-2.029,9.039-1.282,4.885-3.069,11.123-5.912,15.428-3.944,5.969-5.334,9.4-13.035,11.441a14.94,14.94,0,0,1-4.755.757c-.085,0-.172,0-.262,0C65.263,124.022,61.229,123.159,59.255,121.576ZM186.7,116.709c-7.952-1.564-14.9-10.527-15.836-17.157-1.217-8.636.468-17.314,6.487-24.3,5.1-5.914,13.336-9.641,12.809-17.3-.065-.934-.247-1.833.563-.985,2.272,2.383,1.61,5.854.62,8.189-.572,1.345-1.935,2.889-.84,4.4a5.574,5.574,0,0,0,4.939,2.337,1.608,1.608,0,0,0,1.48-.7c-1.774-.071-2.585-.917-2.424-2.4.289-2.651,5.6-2.524,5.474,1.189-.232,3.487-4.184,4.429-7.487,3.2-2.49-.927-2.455-1.967-3.867-3.061l-.352.229a59.83,59.83,0,0,0-5.644,4.759c-5.464,5.4-7.631,14.9-7.478,21.811.428,19.222,23.285,19.558,21.047,12.767a3.426,3.426,0,0,1-2.15.284c-5.721-2.921,1.508-8.222,4.76-3.715,1.1,1.784.612,4.589-.389,6.3-1.755,2.991-5.183,4.44-8.869,4.44A14.757,14.757,0,0,1,186.7,116.709Zm-151.462-.593a3.062,3.062,0,0,1,.328-.494,3.4,3.4,0,0,0,.316-.47q-.023-1.337-.024-1.673a1.555,1.555,0,0,1,.024-.355,6.253,6.253,0,0,1-.072-.82,1.25,1.25,0,0,1,.048-.3,1.32,1.32,0,0,0,.048-.241,3.043,3.043,0,0,0-.33-.7,2.579,2.579,0,0,0-.33-.185.488.488,0,0,1-.258-.3.849.849,0,0,1,.307-.121,1.411,1.411,0,0,1,.328-.049,1.146,1.146,0,0,1,.335.189,1.036,1.036,0,0,0,.35.19,1.969,1.969,0,0,0,.788-.283,2.046,2.046,0,0,1,.926-.281c.07,0,.139,0,.208.007a2.966,2.966,0,0,1,1.714.676,2.211,2.211,0,0,1,.892,1.777,4.053,4.053,0,0,1-.643,2.2,2.138,2.138,0,0,1-1.835,1.167.705.705,0,0,0-.128.02l-.149.032c-.152.035-.236.053-.253.053a.143.143,0,0,1-.084-.053c-.036-.034-.063-.052-.085-.052a1.426,1.426,0,0,1-.481-.141,1.422,1.422,0,0,0-.491-.14,1.513,1.513,0,0,0-.556.233,1.537,1.537,0,0,1-.545.233A.82.82,0,0,1,35.236,116.116Zm2.993-5.33a1.183,1.183,0,0,0-1.142.859,5.087,5.087,0,0,0-.194,1.625,8.993,8.993,0,0,0,.066,1.359q.16.909.747.909a1.083,1.083,0,0,0,.523-.134,2.224,2.224,0,0,0,.836-.951,3.836,3.836,0,0,0,.5-1.809,2.328,2.328,0,0,0-.362-1.16c-.272-.466-.576-.7-.909-.7Zm-15.616,3.53a12.09,12.09,0,0,1-1.013-1.777,8.942,8.942,0,0,0-.129,1.3c-.053.742-.081,1.221-.081,1.437a.637.637,0,0,0,.149.446c.1.112.2.22.31.327H19.9a2.53,2.53,0,0,0,.917-1.439,9.387,9.387,0,0,0,.225-1.842,9.77,9.77,0,0,1,.2-1.761.458.458,0,0,0-.345-.162.419.419,0,0,0-.443.261.771.771,0,0,1,.1.448.535.535,0,0,1-.134.432.755.755,0,0,1-.462.105q-.1,0-.244-.164a.463.463,0,0,1-.15-.261,1.471,1.471,0,0,1,.271-.753c.178-.287.367-.433.566-.439a.984.984,0,0,1,.556-.16,1.622,1.622,0,0,1,1.278.7,7.276,7.276,0,0,1,.854,1.512,10.316,10.316,0,0,0,.748,1.447h.168a12.635,12.635,0,0,0,.677-1.34,11.481,11.481,0,0,1,.868-1.612q.556-.779,1.094-.78a1.044,1.044,0,0,1,.675.258.758.758,0,0,1,.314.6.752.752,0,0,1-.645.643.436.436,0,0,1-.3-.125.384.384,0,0,1-.138-.293,1.214,1.214,0,0,1,.02-.177.953.953,0,0,0,.021-.177c0-.087-.063-.129-.192-.129a.3.3,0,0,0-.275.129,10.685,10.685,0,0,0,1.416,5.075H25.638c.107-.06.215-.116.322-.168.06-.054.088-.181.088-.379a9.894,9.894,0,0,0-.217-1.58,12.489,12.489,0,0,0-.377-1.581q-.9,1.681-1.819,3.749A12.936,12.936,0,0,0,22.613,114.316Zm9.43,1.753a2.549,2.549,0,0,1,.354-.242.429.429,0,0,0,.194-.37,2.14,2.14,0,0,0-.282-1.286,1.524,1.524,0,0,0-1.218-.4h-.014q-1.2,0-1.2,1.347c0,.279.045.451.137.521.15.081.3.164.441.249v.185q-1.422-.048-2.379-.057v-.153a1.943,1.943,0,0,0,.877-.658,3.736,3.736,0,0,0,.5-.955c.119-.354.237-.7.356-1.052a7.7,7.7,0,0,1,.353-.868,5.683,5.683,0,0,1,.321-.675,1.483,1.483,0,0,0,.226-.7.4.4,0,0,0-.185-.281h-.105c-.033.01-.067.024-.105.04s-.056.034-.056.056a.71.71,0,0,0,.04.2.682.682,0,0,1,.04.2.392.392,0,0,1-.222.325.767.767,0,0,1-.413.141c-.053,0-.137-.063-.25-.189s-.168-.216-.168-.27a.959.959,0,0,1,.467-.717,1.383,1.383,0,0,1,.812-.337,1.072,1.072,0,0,1,.528.146,2.551,2.551,0,0,1,.784.763,11.068,11.068,0,0,1,1,1.9q.675,1.562.715,1.634a7.894,7.894,0,0,0,1.078,1.415,8.685,8.685,0,0,1-1.3.089Q32.709,116.077,32.043,116.069ZM30.458,113.2l.633,0,.631.005V113c-.132-.261-.344-.638-.631-1.133l-.062-.105Q30.824,112.239,30.458,113.2Zm10.99,2.734a1.078,1.078,0,0,0,.387-.522,2.232,2.232,0,0,0,.064-.506,1.068,1.068,0,0,1,.1-.46q-.025-1.287-.024-1.529a.854.854,0,0,1,.024-.273q-.071-.531-.153-1.063a1.38,1.38,0,0,0-.595-.859c.016-.012.088-.1.218-.266a.369.369,0,0,1,.3-.145,1.08,1.08,0,0,1,.273.045c.145.042.236.068.275.073,0,0,.265,0,.8.009h2.058a.829.829,0,0,0,.458-.177c.215.032.338.113.37.241a1.423,1.423,0,0,0-.047.387,2.473,2.473,0,0,0,.059.446,2.39,2.39,0,0,1,.06.439c0,.187-.045.281-.136.281s-.266-.123-.507-.37q-.458-.466-.491-.492a1.588,1.588,0,0,0-.877-.177,2.044,2.044,0,0,0-.659.057c-.129.07-.193.273-.193.611q0,1.159.193,1.158a2.46,2.46,0,0,0,.253-.02,2.3,2.3,0,0,1,.246-.021.988.988,0,0,0,.588-.329,3.682,3.682,0,0,1,.538-.459.46.46,0,0,1,.137.353,1.332,1.332,0,0,1-.064.326,1.3,1.3,0,0,0-.065.342,3.591,3.591,0,0,0,.036.422,3.374,3.374,0,0,1,.036.422.186.186,0,0,1-.081.125.233.233,0,0,1-.136.068c-.053,0-.118-.057-.193-.169a1.634,1.634,0,0,0-.265-.321.89.89,0,0,0-.554-.169,1.62,1.62,0,0,0-.214.02,1.459,1.459,0,0,1-.206.021,2.876,2.876,0,0,0-.087.386c-.043.224-.065.353-.065.385a1.15,1.15,0,0,1-.149.4.713.713,0,0,0-.117.422c.032.134.186.229.458.283a2.233,2.233,0,0,0,.281.015h.137a2.181,2.181,0,0,0,1.351-.385,2.119,2.119,0,0,0,.531-.692q.209-.37.394-.371a.309.309,0,0,1,.233.1v1.948a.6.6,0,0,1-.257.1.511.511,0,0,1-.118-.021.479.479,0,0,0-.116-.02H44l-1.937.008a.509.509,0,0,1-.225.056A.615.615,0,0,1,41.447,115.931Zm8.582-4.159H50a3.475,3.475,0,0,1-1.484-.338,4.415,4.415,0,0,1-.692-.41,16.258,16.258,0,0,1-1.737-1.617l-.259-.192a.385.385,0,0,1-.169-.25h-.008q-.129-.129-.37-.395a4.1,4.1,0,0,1-.339-.539,2.211,2.211,0,0,0-.37-.522v-.025a2.806,2.806,0,0,1-.523-.716,5.17,5.17,0,0,0-.49-.781,1.952,1.952,0,0,0-.86-.61.815.815,0,0,0-.262-.111l-.091-.03a2.728,2.728,0,0,0-.387-.109.6.6,0,0,0-.253.125,2.125,2.125,0,0,0-.254.2V106.5a.792.792,0,0,0,.137.249c.107.157.165.245.177.265-.044.134-.1.2-.177.2a.206.206,0,0,1-.128-.065.21.21,0,0,0-.128-.065q-.244,0-.733.037t-.724.036a1.747,1.747,0,0,0,.289-.635l.192-.692c0-.129.005-.325.013-.588s.011-.462.011-.595a13.988,13.988,0,0,0-.065-1.922,2.982,2.982,0,0,0-.684-.933.5.5,0,0,1,.154-.294.4.4,0,0,1,.281-.157c.071,0,.176.081.318.241a.612.612,0,0,0,.454.243,2.366,2.366,0,0,0,.732-.153,2.274,2.274,0,0,1,.651-.154.709.709,0,0,0,.213-.045c.036-.011.075-.026.118-.042a1.044,1.044,0,0,1,.337-.089.451.451,0,0,1,.118.024.414.414,0,0,0,.116.025.506.506,0,0,0,.133-.025.533.533,0,0,1,.125-.024,1.471,1.471,0,0,1,1.125.5,1.665,1.665,0,0,1,.458,1.166,1.469,1.469,0,0,1-.256.845c-.183.23-.366.458-.547.684-.133.027-.273.057-.418.089a.562.562,0,0,0-.337.2,10.092,10.092,0,0,1,1.415,1.3q.611.723,1.222,1.448.645.748,1.642,1.777a6.385,6.385,0,0,0,.828.7c.165.118.339.231.523.342a3.283,3.283,0,0,0,1.568.547,3.522,3.522,0,0,0,1.205-.177,2.68,2.68,0,0,0,.821-.531l.868-.837a.913.913,0,0,1,.072-.274.34.34,0,0,1-.113-.257c-.016-.171-.028-.272-.032-.3l-.113.137c-.022,0-.076.048-.162.145s-.147.145-.185.145a.414.414,0,0,0-.241.072.347.347,0,0,1-.193.073.422.422,0,0,1-.108-.025.4.4,0,0,0-.109-.024v-.064c.005-.033-.029-.09-.1-.17a.36.36,0,0,1-.114-.249,1.194,1.194,0,0,1,.258-.7.746.746,0,0,1,.6-.386,1.16,1.16,0,0,1,.909.41,1.394,1.394,0,0,1,.338.949,1.372,1.372,0,0,1-.087.515,2.845,2.845,0,0,1-.46.571,4.864,4.864,0,0,1-3.563,1.8Zm-8.01-7.443a.28.28,0,0,0,.128.043.84.84,0,0,0,.293-.054,1.531,1.531,0,0,0,.556-.391,1.286,1.286,0,0,0,.431-.865,1.336,1.336,0,0,0-.1-.442.977.977,0,0,0-.213-.378c-.005-.186-.229-.292-.672-.316-.065,0-.137-.006-.213-.006a.6.6,0,0,0-.225.105c-.074.042-.146.088-.216.136-.219.118-.331.5-.331,1.134q0,1.078.3,1.077a.069.069,0,0,0,.064-.043.079.079,0,0,1,.072-.045A.294.294,0,0,1,42.019,104.329Zm78.629,5.484c.009-11.216.463-20.151-.13-30.147.082-1.625-1.531-1.616-1.04-2.673,5.119-.373,10.054-2.116,15.372-3.431,4.447-1.1,2.089-.678,1.364,1.916a17.263,17.263,0,0,0-.889,7.535c.021.344-.078.4-.431.184-1.606-.994-1.5-4.966-1.546-6.2-2.643.378-6.043,1.69-8.859,2.1l.136,7.151c3.823-.667,3.6-.9,6.627-1.541L131,86.35l-.011.135-.063,1.1c-2.167.733-4.3,1.081-6.051,1.708-.269,4.948-.393,10.571-.2,15.529.029.742.538.991,1.328,1.49a5.688,5.688,0,0,0,2.43.606c-.2,1.053-2.855.99-4.033,1.246-.934.2-3.055,1.65-3.736,1.65Zm-97.231-2.577c-.046-.032-.09-.064-.133-.1a.94.94,0,0,0,.531-.595,3.63,3.63,0,0,0,.089-.773,1.958,1.958,0,0,1,.136-.724.339.339,0,0,0-.129-.024.8.8,0,0,0,.04-.241c0-.289-.195-.478-.587-.564-.306-.032-.611-.066-.916-.1a.119.119,0,0,1-.114.056.125.125,0,0,1-.121-.056c-.251.074-.5.148-.756.217a.56.56,0,0,0-.45.54,5.594,5.594,0,0,0,.193,1.639,1.8,1.8,0,0,0,.289.427v.2q-.377.008-1.117,0a.845.845,0,0,1-.142-.02.837.837,0,0,0-.156-.021.147.147,0,0,0-.121.04h-.58c0-.091.011-.131.031-.121l.016-.056A1.532,1.532,0,0,0,20,105.652a6.357,6.357,0,0,0-.048-.64,5.915,5.915,0,0,1-.048-.639,1.44,1.44,0,0,1,.019-.213,1.65,1.65,0,0,0,.021-.213c0-.1-.008-.251-.021-.447s-.019-.344-.019-.446a.736.736,0,0,1,.048-.209.785.785,0,0,0,.048-.217.566.566,0,0,0-.1-.282c.01-.037.021-.072.031-.1a2.9,2.9,0,0,0-.435-.66c.033-.065.156-.1.371-.1.047,0,.073.022.073.065l.032.032a.169.169,0,0,0,.079-.025.217.217,0,0,1,.09-.024.88.88,0,0,1,.165.024.728.728,0,0,0,.165.025,1.383,1.383,0,0,0,.285-.049,1.383,1.383,0,0,1,.293-.049.458.458,0,0,1,.272.1c.055.005.081.025.081.056-.036.043-.088.108-.153.194a2.253,2.253,0,0,0-.177.989,4.3,4.3,0,0,0,.04.513c.038.279.084.419.137.419a3.811,3.811,0,0,0,.5-.049,3.738,3.738,0,0,1,.5-.048c.118,0,.3.007.547.024s.429.024.546.024a.693.693,0,0,0,.209-.048.7.7,0,0,1,.2-.049c.074,0,.113-.234.113-.7a3.085,3.085,0,0,0-.045-.7,2.457,2.457,0,0,0-.364-.559l-.024-.17c.241,0,.561,0,.965.008.494.011.817.017.972.017a.323.323,0,0,0,.025.076.285.285,0,0,1,.024.1.917.917,0,0,1-.136.247,1.232,1.232,0,0,0-.162.294,3.946,3.946,0,0,0-.056.774c0,.329.007.817.024,1.465s.024,1.134.024,1.456a1.656,1.656,0,0,0,.1.541.848.848,0,0,0,.291.442.15.15,0,0,1,.025.073.172.172,0,0,1-.021.057.148.148,0,0,0-.02.056c0,.006.012.022.04.049-.071,0-.231-.005-.484-.017a4.97,4.97,0,0,0-.522-.015,2.644,2.644,0,0,0-.475.049c-.009,0-.1.027-.264.081a1.038,1.038,0,0,1-.242.049A.23.23,0,0,1,23.417,107.236Zm12.824-.072a2.676,2.676,0,0,1,.356-.242.434.434,0,0,0,.192-.37,2.152,2.152,0,0,0-.282-1.288,1.527,1.527,0,0,0-1.219-.394h-.011q-1.2,0-1.2,1.347c0,.279.044.451.136.521.151.081.3.164.442.248v.186q-1.424-.05-2.38-.057v-.153a1.928,1.928,0,0,0,.877-.658,3.736,3.736,0,0,0,.5-.956q.177-.531.353-1.052a8.039,8.039,0,0,1,.354-.867,5.813,5.813,0,0,1,.321-.674,1.482,1.482,0,0,0,.225-.7.4.4,0,0,0-.185-.282h-.1c-.032.01-.066.025-.1.04s-.056.035-.056.057a.765.765,0,0,0,.039.2.723.723,0,0,1,.04.2.392.392,0,0,1-.221.325.78.78,0,0,1-.414.141c-.053,0-.136-.063-.249-.189s-.169-.216-.169-.271a.956.956,0,0,1,.467-.716,1.379,1.379,0,0,1,.812-.338,1.074,1.074,0,0,1,.527.146,2.542,2.542,0,0,1,.785.763,10.935,10.935,0,0,1,1.005,1.9q.676,1.562.717,1.633a7.817,7.817,0,0,0,1.077,1.415,8.656,8.656,0,0,1-1.3.09Q36.908,107.172,36.241,107.164Zm-1.584-2.872.631,0c.241,0,.452,0,.631.007v-.2c-.13-.26-.342-.637-.631-1.132l-.061-.105Q35.024,103.334,34.657,104.292Zm-8.208,2.735a1.078,1.078,0,0,0,.386-.523A2.129,2.129,0,0,0,26.9,106a1.029,1.029,0,0,1,.1-.458q-.024-1.287-.024-1.529a.875.875,0,0,1,.024-.274q-.074-.531-.154-1.061a1.379,1.379,0,0,0-.594-.861,3.356,3.356,0,0,0,.217-.265.368.368,0,0,1,.3-.145,1.077,1.077,0,0,1,.274.045c.145.042.236.068.273.073l.8.009h2.059a.839.839,0,0,0,.458-.177c.215.032.338.113.37.241a1.44,1.44,0,0,0-.049.387,2.4,2.4,0,0,0,.061.446,2.409,2.409,0,0,1,.06.438c0,.187-.044.282-.136.282s-.265-.123-.506-.37c-.307-.311-.469-.475-.492-.492a1.59,1.59,0,0,0-.877-.177,2.049,2.049,0,0,0-.66.057q-.192.1-.192.611,0,1.159.192,1.158a2.289,2.289,0,0,0,.254-.021c.11-.012.191-.02.246-.02a.992.992,0,0,0,.588-.329,3.693,3.693,0,0,1,.538-.459.458.458,0,0,1,.136.353,1.273,1.273,0,0,1-.064.325,1.345,1.345,0,0,0-.064.343,3.794,3.794,0,0,0,.035.421,3.291,3.291,0,0,1,.037.422.182.182,0,0,1-.081.125.232.232,0,0,1-.136.068c-.055,0-.118-.056-.193-.168a1.608,1.608,0,0,0-.266-.321.893.893,0,0,0-.554-.169,1.626,1.626,0,0,0-.214.02,1.655,1.655,0,0,1-.205.021,2.771,2.771,0,0,0-.089.385c-.042.225-.064.355-.064.387a1.151,1.151,0,0,1-.149.4.7.7,0,0,0-.115.423c.032.133.184.227.458.282a2.223,2.223,0,0,0,.281.015h.136a2.176,2.176,0,0,0,1.351-.386,2.13,2.13,0,0,0,.532-.691c.138-.247.271-.371.393-.371a.305.305,0,0,1,.233.1v1.946a.578.578,0,0,1-.258.1.5.5,0,0,1-.116-.02.516.516,0,0,0-.116-.021H29l-1.938.008a.512.512,0,0,1-.226.057A.616.616,0,0,1,26.449,107.027Zm22.069.113H47.1l-.008-.161a1.253,1.253,0,0,0,.542-.455,1.144,1.144,0,0,0,.214-.663.98.98,0,0,0-.012-.139.989.989,0,0,1-.011-.135,2.129,2.129,0,0,1,.032-.322c.022-.166.032-.272.032-.314.026-.323.04-.778.04-1.361a3.6,3.6,0,0,0-.121-1.314h-.072a.961.961,0,0,0-.82.419c-.017.021-.164.3-.443.841a1.006,1.006,0,0,1-.579.573c-.006-.015-.029-.064-.072-.145a.287.287,0,0,1-.057-.145c0-.015.092-.251.282-.7a3.029,3.029,0,0,0,.281-1.01,4.938,4.938,0,0,0-.113-.507l.128-.185a16.077,16.077,0,0,0,2.165.089h.011c.135,0,.328.007.579.021s.458.02.591.02a3.054,3.054,0,0,0,.522-.065,3.182,3.182,0,0,1,.524-.064c.08,0,.128.078.145.233v.33a2.376,2.376,0,0,0,.2.852,3.072,3.072,0,0,1,.2.588v.233c-.006.1-.008.179-.008.232-.006,0-.016.008-.029.025s-.025.024-.035.024c-.141,0-.282-.144-.427-.431a5.228,5.228,0,0,0-.467-.8,1.193,1.193,0,0,0-.949-.43c-.22,0-.329.286-.329.86v1.5c0,1.43.236,2.209.707,2.331l.009.169ZM190.166,102h-.171c-5.876-.136-6.5-8.123-6.621-11.811.25-3.628.518-4.826,1.01-6.133a14.966,14.966,0,0,1,1.925-4.007,4.892,4.892,0,0,1,3.721-1.826l.094-.007c3.194-.253,4.884,2.058,5.688,4.807a24.858,24.858,0,0,1,.948,6.905c-.065,3.83-.332,12.071-6.593,12.072Zm-.042-21.959a5.149,5.149,0,0,0-.657.114,3.042,3.042,0,0,0-1.893,2.144c-1.281,4.236-1.268,7.905-.99,12.187.08,1.205.463,4.7,2.106,5.51a3.528,3.528,0,0,0,1.435.354,2.442,2.442,0,0,0,1.893-.684,5.784,5.784,0,0,0,1.289-2.034,11.666,11.666,0,0,0,.477-3.693,58.577,58.577,0,0,0-.544-10.648,3.767,3.767,0,0,0-.788-2.33,2.5,2.5,0,0,0-1.984-.938C190.355,80.023,190.241,80.029,190.124,80.041Zm-47.48,18.289c-1.978-2.223-2.53-4.238-3.092-6.966a24.537,24.537,0,0,1,2.527-16.216,11.825,11.825,0,0,1,5-5.118,5.654,5.654,0,0,1,4.468-.262,7.827,7.827,0,0,0,4.234.077,8.342,8.342,0,0,0-.826,4.374c0,.138.025,3.912-.813,2.176-.536-1.108-.7-2.57-1.775-3.384a3.251,3.251,0,0,0-3.75-.4c-1.576.912-3.913,4.355-4.5,5.976a31.545,31.545,0,0,0-1.389,8.834c-.046,2.636.046,5.16,1.956,7.527a4.745,4.745,0,0,0,7.233.848c.768-.943,1.114-2.984.383-3.992-.6-.826-2.636-1.228-1.771-1.813.825-.557,2.454-.46,3.569-1.107a17.191,17.191,0,0,1,2.984-1.747c1.015-.355.859-.1.3.651-1.893,2.521-1.72,3.23-1.885,6.771a6.227,6.227,0,0,1-4.633,5.68,7.972,7.972,0,0,1-2.491.384A7.79,7.79,0,0,1,142.643,98.329Zm17.715-6.579c1.9-2.261,5.326-.417,4.279,1.481l-.335.4a3.6,3.6,0,0,1-2.086.738C160.534,94.372,159.471,92.864,160.358,91.751Zm44.919-1.486a6.343,6.343,0,0,0-1.644-1.436,3.192,3.192,0,0,0-2.307-.426c-.119.021-.164.012-.176,0L201,87.946a6.727,6.727,0,0,1,4.746-.368c2.149.716,1.995,1.728,4.686,1.491,2.69-.272,3.448-4.06,8.039-.89l-.3.725c-2.65.234-2.63.319-4.281,1.235-1.015.531-1.535,1.986-4.095,2.064A8.332,8.332,0,0,1,205.277,90.264ZM22.937,88.02C11.8,84.154,9.172,70.722,17.513,63.36a10.9,10.9,0,0,1,7.365-2.317c2.735.5,3.961,2.9,2.084,4.878a2.82,2.82,0,0,1-2.366.459,1.971,1.971,0,0,1-1.752-1.408c-.145-.316-.037-.735-.33-.911a3.191,3.191,0,0,0-1.846.074c-2.875.629-4.382,4.06-4.85,6.2-.761,6.181,0,9.9,5.6,13.467,4.188,2.916,10.733,3.276,17.957,1.257,4.032-1.115,10.53-3.9,13.642-6.4C57.266,75.246,60.573,72,61.632,66.8c1.145-5.623-.056-10.772-4.683-14.929a21.528,21.528,0,0,0-5.929-3.3c-2.668-1.077-6.715-1.427-8.489-2.379-2.9-1.555-2.169-5.473.7-5.8a2.61,2.61,0,0,1,2.905,1.95c.139,1.257-1.292,1.956-2.324,2.546,4.184.552,5.658-.057,9.033-2.089a11,11,0,0,0,5.137-6.149c.01-.031.02-.061.031-.09.065-.523.2-1.306.214-1.481a18.415,18.415,0,0,0,.021-2.257c-.377-5.7-5.217-9.859-12.443-8.035-7.3,1.841-12.856,8.366-21.348,7.157a5.21,5.21,0,0,1-4.029-2.223,3.9,3.9,0,0,1-.61-2.92,5.028,5.028,0,0,1,2.26-3.35c1.44-.989,3.963-.9,4.938.552,1.352,2.2-2.446,4.18-3.99,1.689a2.16,2.16,0,0,1-.151-1.054c-.317.042-1.013,1.47-1.094,1.76a3.166,3.166,0,0,0,.092,1.768c4.04,6.431,19.6-3.962,22.55-6.17A10.319,10.319,0,0,0,46.852,19.9c.348-.449.508-.351.954.053.326.3.771.645,1.161.944,1.045.8,2.372.935,3.663,1.363,2.212.731,3.836,1.178,5.546,2.743,2.855,2.613,3.842,4.985,3.466,9.706a9.562,9.562,0,0,1-1.45,5.075c-1.907,2.891-4.653,4.415-7.971,5.791C56.843,47.4,61.7,50.457,63.586,54.7c2.214,4.989,3.17,10.422,1.158,15.627-3.869,10.011-20.3,18.927-33.849,18.927A24.318,24.318,0,0,1,22.937,88.02Zm46.54-10.743c.2-.291.142-.09.205-.628,0-1.016-.021-1.594-.046-2.538.05-3.531.05-6.954.059-10.45.061-3.465.049-6.861.016-10.341a45.189,45.189,0,0,0-.23-4.7,4.243,4.243,0,0,0-1-2.193c-.435-.4-1.235-.977-1.564-1.328,2.071-.595,4.4-1.2,6.387-1.694,1.969-.487,3.41-1.6,5.708-2.241.208-.058.415-.113.626-.164,3.715-.922,7.573-.887,9.357,2.118,1.82,3.069.607,5.623-1.491,8.373a12.545,12.545,0,0,1-4.655,3.021c-.2.067-1.943.81-3.211,1.356-.752.324-1.335.58-1.33.588l.01.015a8.62,8.62,0,0,1,1.32-.086C84.9,56.463,86.091,62,86.694,65.2c1.891,8.028,8.085,5.692,10.052,6.675a14.149,14.149,0,0,1-4.3,1.318,19.625,19.625,0,0,1-4.358-.324c-.414.309-1.173,1.241-1.857,1.684-.672.33-1.8.882-2.472,1.19.716-3.7.139-6.877-.567-10.469a21.51,21.51,0,0,0-1.5-4.4c-.665-1.183-.792-1.882-2.062-2.145a12.207,12.207,0,0,0-2.951-.077,7.147,7.147,0,0,0-3.059.935s-.024,2.343.052,2.663c-.125,3.779-.059,7.619-.118,11.332-.085,3.279.544,2.623,1.865,4.31l-1.479.179-1.505.357c-2.806.839-2.528.737-4.338,1.314l-.641.144-.058,0C66.575,79.89,69.218,77.545,69.477,77.277Zm10.159-33.5c-.847.163-1.67.38-2.416.576-1.895.5-3.541,1.213-3.7,2.769.131,2.665-.049,4.048.008,6.778.136,1.013-.319,1.607,1.116,1.237.835-.313,3.469-1.006,4.795-1.639l.2-.1c2.613-1.314,5.549-4.125,6.072-6.383a3.006,3.006,0,0,0-2.4-3.363,7.011,7.011,0,0,0-1.367-.126A12.382,12.382,0,0,0,79.635,43.779ZM29.729,76.737c.082-2.29.205-3.477,2.543-5.8,1.494-1.486,1.538-2.141,1.475-3.987-.029-7.868.03-14.488-.03-21.639-.029-2.613.082-5.047-.043-7.686-.139-2.9-3.062-2.774-4.622-3.078-1.124-.219-.054-.5.688-.639,1.079-.2,2.3-.275,2.691-.352,1.743-.286,3.375-1.672,4.567-2.406a16.416,16.416,0,0,1,4.281-1.475c.754-.154.773.2,0,.705a14.291,14.291,0,0,0-1.855,1.611c-.832,1.276-.656.823-.988,1.931-.442,1.351-.217,2.653-.362,4.1.045,1.735.1,3.454.058,5.239.132,7.317-.077,14.452-.014,22.22.168,1.867-.315,3.593,1.5,4.681.1.058.257.031.168.17-.16.206-3.316,1-4.025,1.43-2.368,1.435-3.268,2.078-4.529,4.528-.331.641-.837,1.133-1.172,1.133C29.854,77.421,29.711,77.221,29.729,76.737ZM161.642,62.611c1.636-4.953,10.677-5.93,11.433-.466A2.37,2.37,0,0,1,172.6,64.1c-.892.977-3.009,1.3-3.944.193a1.443,1.443,0,0,1-.152-1.744,1.657,1.657,0,0,1,.737-.622,1.547,1.547,0,0,1,1.96.415.252.252,0,0,0,.233.1c.147,0,.175-.207.131-.433-.292-1.526-1.938-2.309-4.574-1.967a4.149,4.149,0,0,0-3.583,3c-.785,2.478.79,5.622,4.407,6.388a9.354,9.354,0,0,0,9.331-2.676c2.091-2.091,3.261-5.28,4.33-8.1a28.61,28.61,0,0,0,2-8.669c.005-.107.017-.226.031-.357.036-.419.07-.855.105-1.315.01-.132,0-.306.022-.48-.016-.349,0-.759.013-1.037.1-2.215.029-4.233.065-6.453.071-4.111-.219-8.366-.169-12.5.038-.445.07-.845.1-1.206a2.625,2.625,0,0,1,.031-.446c.029-.428.048-.794.062-1.115-.023-.319-.064-.565-.107-1.011a3.564,3.564,0,0,0-.758-2.31,2.448,2.448,0,0,0-2.127-.934c-11.6.089-21.5,2.587-32.366,4.337-3.473.56-5.363,1.631-8.264,3.436-.894.556-1.4.46-2.858.279a19.047,19.047,0,0,0-6.9.077c-7.4,1.491-10.872,2.5-20.636,5a4.7,4.7,0,0,1-1.556.2c-.253-.032-.326-.184-.2-.3.734-.684,3-1.377,7.666-3.683,5.541-2.716,11.055-8.355,5.915-13.8-3.956-2.784-10.7-2.06-13.034,2.164-2.005,3.634,1.978,8.005,6.813,6.095.283-.112.386-.13.549-.353.53-.724.115-.356-.323-.557-3.983-1.815.333-4.875,2.327-2.867,1.6,1.61.427,3.845-1.518,4.823-6.8,2.743-12.556-2.936-8.993-8.889,5.806-6.726,16.093-3.884,17.947,1.8.924,2.836.638,5.634-2.855,8.617-.555.474-1.122.9-1.722,1.333-.291.21-.579.423-.867.637-.142.1-1.423.82-1.4.833,16.9-4.271,24.474-6.184,41.894-9.184a124.382,124.382,0,0,1,17.9-2.195c.689-.038,3.377-.112,4.783-.062a1.232,1.232,0,0,0,.942-.187,16.308,16.308,0,0,1,3.654-1.525c.861-.231.443.583.217,1.526a10.164,10.164,0,0,1-.3,1.066,4.113,4.113,0,0,1-.236.6c-.038.214-.085.424-.217,1.072-.218,1.064.561,2.583.533,3.106l.077.1-.042.01a25.539,25.539,0,0,0,3.964,7.935,19.511,19.511,0,0,0,3.67,3.347,10.3,10.3,0,0,1,4.042,7.056c.065.494.24-.034.243-.43.029-2.862.113-16.041.123-18.009.026-.592-.021-1.16-.029-1.749a9.806,9.806,0,0,0-.653-3.877c-.264-.642-.719-1.3-.817-1.717a.255.255,0,0,1,.289-.34c.668.2,3.067.944,3.42.933a5.534,5.534,0,0,0,2.581-1.021c.867-.5,3.071-.793,2.827-.53-.981,1.064-2.046,1.721-2.607,2.435-1.761,2.243-1.659,2.669-1.775,4.777-.057,4.3-.038,8.506-.059,12.834.015,2.678-.024,5.707-.024,8.358.033.719-.055,3.869-.114,4.31a5.438,5.438,0,0,0,1.995,2.592c.415.341.843.718,1.334,1.068.989.705.2.6-.923.575-2.606-.06-1.981-1.64-5.844-1.982-3.421.046-1.215-.756-1.219-2.377a18.9,18.9,0,0,0-2.655-8.844c-.7-1.233-2.271-2.182-3.36-3.115a18.39,18.39,0,0,1-4.845-6.651c-.073-.126-.137-.234-.132-.009.052,2.33.172,6.267.158,7.4-.062,3.475.1,6.552-.157,10.335a10.564,10.564,0,0,1-.083,1.363c0,.088,0,.179-.007.271-.013.452-.167.944-.221,1.5-.6,6.042-2.931,12.721-7.438,17.132a12.379,12.379,0,0,1-8.67,3.932c-.1,0-.2,0-.3,0C163.809,71.848,160.3,66.688,161.642,62.611ZM94.556,64.886c-3.577-8.181-2.666-25.178,8.4-27.552h0c4.989-.481,7.119,2.178,8.079,4.9,2.9,8.221,3.14,26.066-8.079,28.337-.22.043-.443.085-.672.117a6.1,6.1,0,0,1-.789.053C98.056,70.746,95.767,67.655,94.556,64.886Zm8.4-25.3a6.941,6.941,0,0,0-2.317,1.136A6.479,6.479,0,0,0,98.28,44.7c-1.292,4.926-1.179,8.879-1.074,13.855.032,4.4,1.066,7.375,2.422,9.131a3.181,3.181,0,0,0,3.331,1,7.041,7.041,0,0,0,3.17-1.625c1.741-1.57,1.995-3.555,2.176-5.714.6-7.175.816-10.259-.535-19.23a3.085,3.085,0,0,0-3.326-2.744A5.7,5.7,0,0,0,102.959,39.586Zm11.928,27.138c.494-.407.575-.949,1.043-1.5.259-6.368.013-12.149-.07-18.242-.075-2.63-.137-5.262-.156-7.916.01-2.239-.6-1.967-2.071-3.427a23.9,23.9,0,0,0,3.341-.678c.369-.181,1.6-.719,2.293-.967.492-.175.445-.131.4.284a9.816,9.816,0,0,0-.293,2.739c-.038,2.98,3.975,6.662,6.372,8.527,6.794,3.646,5.25,10.778,5.54-.734.033-2.391.06-4.576,0-6.9-.029-1.167.032-2.934-.016-3.5-.063-.756-.883-1.015-1.712-1.747-.273-.241-.4-.244.085-.314.715-.1,2.1-.194,3-.357.624-.2,3.633-1.693,3.553-1.04-.063.531-.951,1.544-1.154,2.587-.011,5.162-.128,11.043-.065,16.026-.026,1.868-.081,5.052.064,7.922.08,1.561,0,3,.679,3.91.323.432,1.087.556-.419.563a12.193,12.193,0,0,0-4.165.958c-2.543.561.193-1.339.133-2.5-.179-3.477-1.034-4.705-3.42-8.652-1.749-2.889-4.111-4.08-6.812-6.232a13.525,13.525,0,0,1-1.654-2.2c-.009-.024-.016.377-.013.5l.026,2.716c.027,2.569.041,4.281.041,6.855l.049,4.236c0,1.579-.107,3.118-.062,4.7.021.764-.219,1.955.741,2.64,1.159.513.861.667-.335.762-.652.052-1.041.106-1.822.21-1,.467-1.835.658-2.636,1.014a1.06,1.06,0,0,1-.411.107C114.727,67.058,114.694,66.882,114.886,66.724Zm26.862-8.1c-5.014-2.557-4.829-6.519-2.767-10.22a31.641,31.641,0,0,0,1.324-3.864c.066-.165.264-.059.37.027a4.6,4.6,0,0,1,1.307,2.982,11.933,11.933,0,0,1,4.063.519c.181.052.241.354-.724.512a7.187,7.187,0,0,0-3.705,1.867c-1.109,1.011-.922,3.35-.2,4.476a8.216,8.216,0,0,0,6.625,1.785c6.793-.956,8.438-4.581,6.109-8.543-1.019-2.225-2.282-3.044-4.72-4.169-2.573-1.188-7.1-3.033-8.852-4.826-2.2-2.255-1.663-6.456.633-8.563,2.4-2.2,4.441-2.138,6.616-2.074a13.7,13.7,0,0,0,3.618-.229c2.185-.449,2.127-.058,2.935,1.526a6.882,6.882,0,0,0,1.7,2.6c1.551,1.208.681,1.213-.563.635-3.181-1.482-5.21-2.746-9.677-1.862-4.752.941-3.979,5.237-1.163,7.295,5.418,3.959,14.773,5.19,14.9,12.246.055,3.13-1.567,5.4-5.776,7.383a16.177,16.177,0,0,1-7.011,1.46A11.607,11.607,0,0,1,141.749,58.624Zm21.174-8.11c-3.757-7.933-3.221-24.6,7.788-27.155.124-.014.246-.027.368-.037,4.72-.414,6.826,2.083,7.823,4.667,3.112,8.075,3.727,25.837-7.823,27.991-.1.019-.2.039-.3.056a6.046,6.046,0,0,1-.912.07C166.495,56.1,164.18,53.167,162.923,50.514Zm8.156-25.033a6.939,6.939,0,0,0-2.6,1.243,6.306,6.306,0,0,0-2.274,3.948c-1.184,4.851-.984,8.718-.769,13.589.13,4.312,1.229,7.2,2.623,8.888a3.109,3.109,0,0,0,3.023.975,6.977,6.977,0,0,0,3.463-1.721c1.7-1.575,1.915-3.524,2.048-5.642.439-7.037.59-10.063-.958-18.817a3.055,3.055,0,0,0-3.281-2.618A5.578,5.578,0,0,0,171.079,25.481Zm-105.9,17.38c1.522-1.961,4.049-2.218,3.993-4.848.028-6.941.036-10.519.021-16.625,0-.357-.012-.737-.039-1.033-.064-.732-.553-.774-1.186-.847a29.538,29.538,0,0,0-5.585.131,11.2,11.2,0,0,0-3.8,1.4c-2.192-.983-2.329-1.032-3.312-1.45a26.476,26.476,0,0,0-4.2-.885c-.6-.092-1.577-.351-1.14-.372,1.718-.082,3.651-.08,5.321-.075,3.547.007,7.063-.359,10.613-.384,2.644-.019,5.21-.187,7.823-.264,5.035-.149,10.054-.539,15.1-.564.691,0,.337.132.051.209l-3.864,1.085a31.013,31.013,0,0,0-3.179,1.329,10.131,10.131,0,0,0-3.957-.748,33.8,33.8,0,0,0-4.585.281c-1.029.1-1.262.322-1.331,1.187-.045.561-.106,1.26-.1,2.048-.058,4.59-.012,9.173-.037,13.8-.013,2.377-.592,2.762,1.664,4.183.816.724-.713.643-1.329.717a11.118,11.118,0,0,0-1.393.214c-.5.128-1.923.706-2.414.864a15.818,15.818,0,0,1-3.01.844l-.12,0C64.98,43.061,65.067,43.011,65.183,42.861Zm10.67-3.116c.209-.261.377-.543.59-.848a8.421,8.421,0,0,0,.212-2.359c0-.245,0-.489,0-.72,0-1.762.061-3.12.019-4.753-.032-1.816.013-3.571-.01-5.318-.013-.989.152-1.62-.49-2.337a12.633,12.633,0,0,0-1.634-.886c-.438-.3-.041-.44.229-.443.811-.007,1.857.038,2.528.077a3.376,3.376,0,0,0,1.1-.19,2.848,2.848,0,0,1,1.359-.16c.776.154-.96.935-1.019,1.285-.163,1.879-.052,3.613-.095,5.911,0,.026,0,.126.07.118,3.826-.429,5.333-.617,6.527-.754.487-.056.382.005.412-.444-.007-.791.034-1.66-.01-2.718-.006-.111,0-.22,0-.329-.008-.668.005-1.187-.041-1.725a1.017,1.017,0,0,0-.25-.367c-.252-.211-.486-.434-.626-.536-.479-.35-.923-.519,1.411-.357,1.33-.232,2.46-.389,1.439.345a1.952,1.952,0,0,0-.135.849c-.017.458-.005.93-.017,1.375.022.285.007.422.017.8-.02,2.192.01,3.9-.01,6.139,0,.692.011,1.4,0,2.071-.017.774.024,1.936,0,3.073a4.175,4.175,0,0,0,.65.663c.59.518-.616.29-1.278.465-.168.08-2.306.816-1.927.378.239-.278.462-.719.777-1.194-.028-2.658,0-4.085-.012-6.1,0-.407.007-.513,0-.825-.006-.161.072-.231-.185-.2l-6.658.833c-.275.037-.123.266-.155.822-.005,1.837-.023,3.488,0,5.445a3.937,3.937,0,0,0,.131,1.492,7.382,7.382,0,0,0,.6.564c.318.31.087.352-.409.449-.286.055-.67.225-.984.257a7.012,7.012,0,0,1-1.622.663,1.343,1.343,0,0,1-.405.074C75.667,40.335,75.511,40.177,75.853,39.745Zm15.065-3.79c.018-2.359-.011-2.971-.011-4.569,0-1.387.01-2.75,0-4.234.034-.682-.04-1.148,0-2.054-.017-.771.022-.793.01-1.651,0-.315-.411-.571-.722-.794-.149-.105-.54-.5.045-.715a5.063,5.063,0,0,1,1.313.031c.344.033.627.067.664.064,2.856-.319,4.8-.595,7.407-.982,1.138-.653.818.172.818,1.593a4.78,4.78,0,0,1-.158,1.008c-.085.291-.375.474-.533.145a12.694,12.694,0,0,1-.473-1.2c-.036-.1-.059-.19-.325-.154-1.214.164-2.169.345-5.8.771-.549.066-.308.185-.359,1.287,0,.838-.019,1.549-.036,2.514.021.465-.19,1.243.612,1.182a52.577,52.577,0,0,0,5.386-.721c.581-.123.771-1.247.981-.409l-.016,1.8c.015.851-.157.536-.492.222a.965.965,0,0,0-.684-.325c-.605,0-1.292.215-1.9.252-.514.031-1.424.169-1.862.22-1.009.118-2,.119-1.96.944a27.457,27.457,0,0,0-.043,3.038c-.006,1.759-.288,2.324,1.18,1.911a34.812,34.812,0,0,0,4.427-.8c.637-.166.637-.165.84-.7.154-.4.986-2.593,1.226-1.032l-.025,1.563c-.1,1.143.272,1.849-.324,1.79a6.891,6.891,0,0,0-1.371-.041c-1.008.123-2.355.449-3.371.593-1.525.217-3.386.76-4.893,1.1C89.415,37.275,90.692,36.528,90.917,35.955Z" transform="translate(180.343 285.257)" fill="#fff"/></g></svg>